<svg xmlns="http://www.w3.org/2000/svg" width="150" height="24" viewBox="0 0 150 24"><path fill="#fff" d="M105.221 4.888v14.667h-4.928v-10.845h-7.634v-3.822h12.562zm-12.537 6.624h4.76v8.043h-4.76v-8.043zM119.523 4.888l-4.617 14.667h-5.084l3.414-10.845h-6.25v-6.827h4.676v3.005h7.861zM129.496 19.555l-4.184-7.454c-.349.036-.889.265-.889 1.25v6.204h-4.46v-5.29c0-2.332.985-4.364 3.763-4.7l-3.053-4.677h4.892l4.015 6.853c.65-.024.891-.613.891-2.067v-4.786h4.567v4.592c0 2.861-1.491 4.099-3.979 4.412l3.57 5.662h-5.133zM142.078 4.888v14.667h-5.025v-14.667h5.025zM149.647 4.888v14.667h-5.025v-14.667h5.025z"/><g fill="#fff"><path d="M.353 4.893h4.064l5.303 8.11v-8.11h4.103v14.659h-4.103l-5.274-8.049v8.049h-4.093v-14.659zM15.439 4.893h11.665v3.13h-7.302v2.33h6.774v2.99h-6.774v2.889h7.513v3.32h-11.876v-14.659zM28.491 4.893h4.134l1.489 8.206 2.178-8.206h4.119l2.184 8.196 1.49-8.196h4.112l-3.104 14.659h-4.269l-2.471-9.229-2.461 9.229h-4.268l-3.133-14.659zM48.368 14.702l4.141-.271c.089.7.271 1.233.547 1.6.449.594 1.089.891 1.922.891.621 0 1.1-.151 1.437-.455.336-.304.504-.655.504-1.054 0-.381-.161-.722-.48-1.021-.321-.3-1.063-.583-2.229-.85-1.909-.446-3.27-1.04-4.083-1.78-.819-.739-1.23-1.683-1.23-2.83 0-.752.209-1.464.629-2.134.42-.671 1.051-1.197 1.893-1.58s1.997-.575 3.463-.575c1.8 0 3.173.35 4.118 1.045.945.697 1.507 1.806 1.686 3.325l-4.102.25c-.109-.66-.338-1.141-.688-1.44s-.831-.449-1.446-.449c-.506 0-.888.11-1.144.335-.256.223-.384.495-.384.814 0 .233.106.443.317.63.205.193.691.374 1.461.54 1.901.427 3.264.858 4.087 1.295.824.437 1.423.978 1.797 1.625s.562 1.37.562 2.171c0 .938-.25 1.805-.749 2.599-.5.794-1.198 1.396-2.096 1.805-.896.41-2.027.615-3.391.615-2.396 0-4.054-.479-4.977-1.44-.921-.961-1.444-2.181-1.565-3.661z"/></g><path fill="#00AEEF" d="M68.8.612s-3.352 0-3.352 3.352v16.07s0 3.354 3.352 3.354h16.071s3.352 0 3.352-3.354v-16.07s0-3.352-3.352-3.352h-16.071z"/><path fill="#fff" d="M81.923 3.274h-4.972c-.703 0-.823.608-.823.608-.461 1.801-2.6 9.105-2.6 9.105-.215.567.39.567.39.567h4.971c.702 0 .823-.608.823-.608.461-1.802 2.6-9.106 2.6-9.106.215-.566-.389-.566-.389-.566M78.444 15.537h-4.971c-.703 0-.824.608-.824.608-.46 1.801-1.122 3.941-1.122 3.941-.215.567.391.567.391.567h4.971c.702 0 .823-.608.823-.608.461-1.801 1.121-3.942 1.121-3.942.218-.566-.389-.566-.389-.566"/></svg>